<svg width="107" height="24" viewBox="0 0 107 24" fill="none" xmlns="http://www.w3.org/2000/svg">
<path d="M17.96 14.568C17.936 15 17.6 15.672 17.168 16.152C16.832 16.536 16.448 16.8 16.088 16.8C15.896 16.8 15.704 16.728 15.536 16.512C15.2 16.104 14.792 13.92 14.432 11.328H14.816C15.68 11.328 16.184 11.088 16.472 10.8C16.808 10.464 16.88 10.032 16.88 9.744C16.88 9.576 16.856 9.456 16.856 9.456C16.856 9.456 16.232 9.432 15.272 9.408C14.936 9.408 14.576 9.384 14.168 9.384C14.024 8.304 13.904 7.2 13.76 6.168C13.424 3.648 13.16 1.56 13.016 1.224C12.488 0.647999 11.576 0.407999 10.712 0.407999C10.064 0.407999 9.464 0.527999 9.008 0.767999C7.904 1.368 7.304 3.24 6.68 5.712L5.696 9.648C3.68 9.912 2.264 10.488 1.52 11.856C1.112 12.6 0.944 13.632 0.944 14.712C0.944 15.792 1.112 16.944 1.472 17.928C1.952 19.344 2.768 20.4 3.824 20.4C3.92 20.4 3.992 20.4 4.088 20.376C4.88 20.232 5.6 18.744 6.272 16.656C6.776 15.096 7.232 13.224 7.664 11.352C8.648 11.28 9.752 11.256 10.88 11.256C11.216 13.656 11.648 15.888 12.104 16.8C12.608 17.856 13.4 18.456 14.216 18.768C14.648 18.936 15.08 18.984 15.488 18.984C16.016 18.984 16.472 18.864 16.832 18.672C17.768 18.12 18.848 16.824 18.848 15.936C18.848 14.976 18.368 14.568 17.96 14.568ZM8.096 9.456C8.24 8.808 8.456 7.992 8.768 6.6C9.248 4.464 9.584 3.408 9.92 2.952C9.92 2.952 10.04 4.416 10.256 6.432C10.352 7.344 10.472 8.376 10.616 9.408C9.728 9.408 8.888 9.432 8.096 9.456ZM3.512 17.016C3.44 17.064 3.368 17.088 3.32 17.088C2.984 17.088 2.792 16.272 2.792 15.312C2.792 15.12 2.792 14.928 2.816 14.712C2.888 13.8 3.152 12.888 3.56 12.48C3.896 12.144 4.472 11.904 5.168 11.736C4.832 12.96 4.52 14.088 4.256 14.976C3.92 16.128 3.656 16.896 3.512 17.016ZM23.8829 17.808C24.4829 18.696 25.2269 19.176 26.0909 19.176C26.3549 19.176 26.6669 19.128 26.9549 19.032C28.1069 18.672 29.1869 17.616 29.4989 16.248C29.5469 16.056 29.5469 15.888 29.5469 15.744C29.5469 14.976 29.0909 14.664 28.7309 14.664H28.6109C28.5629 15 28.3709 15.576 28.0829 16.032C27.8189 16.464 27.4589 16.8 27.0749 16.8C26.9789 16.8 26.8829 16.776 26.7629 16.728C26.3789 16.512 26.1389 15.36 26.0909 13.632C26.0669 13.344 26.0669 13.032 26.0669 12.696C26.0669 11.76 26.1149 10.704 26.2109 9.552C26.5709 8.544 27.6749 5.088 27.6749 3.072C27.6749 1.632 26.7869 0.671999 25.8029 0.263999C25.4669 0.119998 25.1069 0.0479994 24.7709 0.0479994C24.1229 0.0479994 23.5949 0.335999 23.3789 0.912C22.9949 1.992 22.8989 4.584 22.8989 7.128C22.4909 6.984 22.0589 6.912 21.6269 6.912C21.1469 6.912 20.6669 7.008 20.1869 7.152C19.0829 7.488 18.2909 8.76 17.8109 10.32C17.4989 11.352 17.3309 12.504 17.3309 13.584C17.3309 14.232 17.3789 14.88 17.5229 15.456C17.8349 16.848 18.4589 17.808 19.1309 18.36C19.6349 18.792 20.1629 19.008 20.6429 19.008C20.8349 19.008 21.0029 18.96 21.1709 18.912C21.9629 18.624 22.6829 17.208 23.2589 15.84C23.4029 16.68 23.5949 17.4 23.8829 17.808ZM23.0189 12.576C22.2749 14.544 21.5549 16.392 21.0269 16.392C20.5949 16.392 20.3789 15.36 20.3789 14.16C20.3789 13.584 20.4269 12.96 20.5229 12.336C20.7389 11.04 21.1469 9.768 21.8189 9.168C22.1789 8.832 22.5389 8.688 22.8989 8.688C22.9229 10.272 22.9709 11.712 23.0189 12.576ZM25.2269 6.768C25.2269 6.768 25.1309 5.832 25.1309 4.896C25.1309 3.96 25.2029 3.024 25.5389 3C25.7549 3 25.8509 3.24 25.8509 3.624C25.8509 3.984 25.7789 4.44 25.6829 4.92C25.4909 5.856 25.2269 6.768 25.2269 6.768ZM38.2117 17.04C37.9477 16.896 37.8517 16.128 37.8517 15.12C37.8517 14.568 37.8757 13.968 37.9237 13.344C38.0437 11.616 38.2597 9.816 38.2597 9.24C38.2597 8.664 37.7317 8.112 37.1317 7.776C36.7237 7.536 36.2437 7.392 35.9317 7.392C35.6677 7.392 35.4757 7.488 35.4757 7.728L35.4277 8.112C34.7557 7.272 33.7717 6.84 32.7397 6.84C32.2837 6.84 31.8037 6.912 31.3477 7.08C29.2357 7.848 28.3717 10.92 28.3717 13.464C28.3717 14.112 28.4437 14.736 28.5397 15.264C29.0437 17.736 30.7957 18.912 31.9717 18.912C32.1397 18.912 32.3077 18.888 32.4517 18.84C34.2277 18.216 34.7317 15.072 35.0437 14.376C35.0437 14.592 35.0197 14.904 35.0197 15.264C35.0197 15.768 35.0677 16.392 35.3557 17.136C35.7877 18.288 37.0357 18.96 38.0917 18.96C39.5317 18.96 40.7797 17.64 41.1157 16.44C41.1877 16.2 41.2117 15.984 41.2117 15.792C41.2117 14.952 40.5877 14.688 40.3237 14.688C40.2517 15.048 39.9637 15.744 39.5557 16.296C39.2197 16.752 38.8597 17.112 38.4757 17.112C38.3797 17.112 38.3077 17.088 38.2117 17.04ZM32.2117 16.464C31.8277 16.464 31.6597 15.528 31.6597 14.4C31.6597 13.656 31.7317 12.768 31.8997 11.952C32.1397 10.728 32.5477 9.576 33.0997 9.024C33.4117 8.712 33.7237 8.568 33.9877 8.568C34.4917 8.568 34.9237 9.048 35.1397 9.792C34.8757 11.064 34.4677 12.504 34.0117 13.728C33.4357 15.288 32.8117 16.464 32.2117 16.464ZM55.8607 18.984C56.8447 18.696 58.0207 17.544 58.3567 16.344C58.4287 16.128 58.4527 15.936 58.4527 15.768C58.4527 15.024 57.9487 14.616 57.5647 14.616C57.5167 14.88 57.2767 15.48 56.9647 16.032C56.6287 16.632 56.1727 17.136 55.7407 17.136C55.6207 17.136 55.5247 17.112 55.4047 17.04C55.1647 16.896 55.1167 16.2 55.1167 15.264C55.1167 14.544 55.1407 13.704 55.1887 12.864C55.2367 12.12 55.2607 11.352 55.2607 10.728C55.2607 10.152 55.2367 9.672 55.1407 9.384C54.8527 8.4 54.2527 7.8 53.6047 7.488C53.1727 7.272 52.7167 7.176 52.3087 7.176C51.9007 7.176 51.5167 7.272 51.3007 7.44C50.8207 7.776 50.3887 8.424 50.0527 9.192C49.6687 10.08 49.3087 11.256 48.9967 12.408C49.0207 12.288 49.0207 12.024 49.0207 11.688C49.0207 10.968 48.9487 9.888 48.6367 9.024C48.2767 8.016 47.1967 7.224 46.1167 7.224C45.6607 7.224 45.2287 7.368 44.8207 7.68C43.7887 8.52 43.0207 12.336 42.9007 12.96C42.9727 12.168 43.0447 11.376 43.0447 10.584C43.0447 9.792 42.9727 9 42.7807 8.568C42.4207 7.824 41.6767 7.416 40.9327 7.416C40.6687 7.416 40.3807 7.464 40.1407 7.584C40.2607 7.992 40.3087 8.712 40.3087 9.624C40.3087 10.68 40.2607 12 40.1887 13.2C40.1167 14.376 40.0687 15.504 40.0687 16.272C40.0687 16.584 40.0687 16.848 40.0927 17.016C40.2127 18.144 41.5087 18.744 42.3727 18.744C42.6367 18.744 42.8527 18.696 42.9967 18.576C42.9727 18.504 42.9487 18.384 42.9487 18.216C42.9487 17.424 43.3087 15.72 43.7887 14.016C44.4367 11.712 45.3007 9.456 45.8287 9.456C46.1887 9.456 46.2847 10.416 46.2847 11.64C46.2847 12.336 46.2367 13.128 46.2127 13.872C46.1647 15.072 46.0687 16.248 46.0687 16.944C46.0687 17.136 46.0687 17.28 46.0927 17.4C46.1887 18.24 47.1727 18.696 48.0127 18.696C48.3487 18.696 48.6847 18.624 48.9247 18.456C48.9007 18.408 48.9007 18.312 48.9007 18.216C48.9007 17.52 49.3087 15.72 49.8367 13.92C50.5087 11.664 51.3967 9.432 51.9007 9.432C52.2607 9.432 52.3327 10.104 52.3327 10.92C52.3327 11.88 52.2127 13.152 52.2127 14.376C52.2127 15.216 52.2847 16.032 52.4527 16.68C52.8127 18.096 54.1567 19.056 55.3327 19.056C55.5247 19.056 55.6927 19.032 55.8607 18.984ZM63.8981 17.016C63.8981 17.4 63.8741 17.952 63.8501 18.504C63.1301 18.912 62.4821 19.224 62.0501 19.44C60.5861 20.112 59.0021 20.856 59.0021 22.152C59.0021 22.272 59.0021 22.416 59.0501 22.56C59.5061 23.904 61.3061 23.928 62.2901 23.928C63.4421 23.856 64.5941 23.424 65.2901 22.608C66.0581 21.696 66.4181 20.376 66.6101 19.08C67.7861 18.456 68.8421 17.736 69.4181 16.92C69.6821 16.56 69.7781 16.224 69.7781 15.936C69.7781 15.36 69.3941 14.928 68.9861 14.736C68.5781 15.336 67.7621 16.056 66.7781 16.728C66.8261 15.384 66.8261 14.784 66.8501 13.776C66.8741 12.792 66.8981 11.616 66.9461 10.632C66.9941 9.792 67.0661 9.072 67.0661 8.928C67.0661 8.4 66.5861 7.944 66.0341 7.68C65.6501 7.488 65.2181 7.368 64.8821 7.368C64.5461 7.368 64.3061 7.488 64.2821 7.728L64.2101 8.208C63.5621 7.296 62.5781 6.792 61.5221 6.792C61.0661 6.792 60.6101 6.888 60.1541 7.08C58.9061 7.632 58.0421 8.88 57.5861 10.32C57.2981 11.28 57.1301 12.312 57.1301 13.32C57.1301 14.016 57.2021 14.664 57.3461 15.264C57.6101 16.464 58.1141 17.352 58.7381 17.952C59.3621 18.576 60.1301 18.888 60.7781 18.888C61.7861 18.888 62.4101 18.096 62.7701 17.4C63.3461 16.344 63.6821 14.976 63.9221 14.184C63.9221 14.184 63.8981 15.792 63.8981 17.016ZM62.0741 8.88C62.3381 8.64 62.5781 8.544 62.8181 8.544C63.3221 8.544 63.7301 9.048 63.9461 9.624C63.7061 10.848 63.3221 12.264 62.9141 13.488C62.3621 15.144 61.6901 16.464 61.0901 16.464C60.6581 16.464 60.4901 15.576 60.4901 14.52C60.4901 13.872 60.5621 13.104 60.6821 12.36C60.9221 10.92 61.3781 9.504 62.0741 8.88ZM61.4741 21.744C61.5461 21.576 61.8581 21.384 62.2901 21.168C62.6261 21 63.0581 20.784 63.5381 20.568C63.4421 20.904 63.3221 21.192 63.2021 21.408C62.9861 21.768 62.6741 21.984 62.3621 22.104C62.1941 22.176 62.0021 22.2 61.8581 22.2C61.5941 22.2 61.4261 22.104 61.4261 21.936C61.4261 21.888 61.4261 21.816 61.4741 21.744ZM72.8876 7.056C72.3836 7.44 71.9996 8.304 71.9996 9.384C71.9996 9.6 72.0236 9.84 72.0476 10.056C71.9036 10.272 71.7836 10.512 71.6396 10.8C71.6156 9.984 71.5676 9.288 71.4476 8.88C71.2076 8.016 70.7276 7.536 70.2236 7.272C69.9116 7.128 69.5996 7.056 69.3356 7.056C69.0476 7.056 68.8076 7.128 68.6876 7.248C68.7596 7.32 68.7836 7.752 68.7836 8.424C68.7836 9.36 68.7116 10.752 68.7116 13.248C68.7116 15.048 68.7836 16.752 69.0956 17.52C69.4316 18.336 70.2236 18.864 70.9676 18.864C71.2316 18.864 71.5196 18.792 71.7356 18.648C71.5676 17.616 71.5436 16.632 71.5436 15.648C71.5436 15.408 71.5436 15.192 71.5916 14.952C71.8316 13.512 72.4076 12.552 72.9356 12.288C73.6076 13.08 74.6636 13.584 75.7916 13.584C77.1116 13.584 78.4316 12.84 78.4316 11.52C78.4316 10.8 77.9996 10.32 77.4956 10.32C77.3756 11.016 76.7036 11.712 75.9836 11.712C75.9116 11.712 75.8636 11.712 75.7916 11.688C74.8076 11.496 74.4716 10.512 74.4716 10.512C74.4716 10.512 75.3596 9.48 75.3596 8.736C75.3596 7.728 74.2796 6.864 73.4636 6.864C73.2476 6.864 73.0556 6.936 72.8876 7.056ZM86.3289 17.04C86.0649 16.896 85.9689 16.128 85.9689 15.12C85.9689 14.568 85.9929 13.968 86.0409 13.344C86.1609 11.616 86.3769 9.816 86.3769 9.24C86.3769 8.664 85.8489 8.112 85.2489 7.776C84.8409 7.536 84.3609 7.392 84.0489 7.392C83.7849 7.392 83.5929 7.488 83.5929 7.728L83.5449 8.112C82.8729 7.272 81.8889 6.84 80.8569 6.84C80.4009 6.84 79.9209 6.912 79.4649 7.08C77.3529 7.848 76.4889 10.92 76.4889 13.464C76.4889 14.112 76.5609 14.736 76.6569 15.264C77.1609 17.736 78.9129 18.912 80.0889 18.912C80.2569 18.912 80.4249 18.888 80.5689 18.84C82.3449 18.216 82.8489 15.072 83.1609 14.376C83.1609 14.592 83.1369 14.904 83.1369 15.264C83.1369 15.768 83.1849 16.392 83.4729 17.136C83.9049 18.288 85.1529 18.96 86.2089 18.96C87.6489 18.96 88.8969 17.64 89.2329 16.44C89.3049 16.2 89.3289 15.984 89.3289 15.792C89.3289 14.952 88.7049 14.688 88.4409 14.688C88.3689 15.048 88.0809 15.744 87.6729 16.296C87.3369 16.752 86.9769 17.112 86.5929 17.112C86.4969 17.112 86.4249 17.088 86.3289 17.04ZM80.3289 16.464C79.9449 16.464 79.7769 15.528 79.7769 14.4C79.7769 13.656 79.8489 12.768 80.0169 11.952C80.2569 10.728 80.6649 9.576 81.2169 9.024C81.5289 8.712 81.8409 8.568 82.1049 8.568C82.6089 8.568 83.0409 9.048 83.2569 9.792C82.9929 11.064 82.5849 12.504 82.1289 13.728C81.5529 15.288 80.9289 16.464 80.3289 16.464ZM103.978 18.984C104.962 18.696 106.138 17.544 106.474 16.344C106.546 16.128 106.57 15.936 106.57 15.768C106.57 15.024 106.066 14.616 105.682 14.616C105.634 14.88 105.394 15.48 105.082 16.032C104.746 16.632 104.29 17.136 103.858 17.136C103.738 17.136 103.642 17.112 103.522 17.04C103.282 16.896 103.234 16.2 103.234 15.264C103.234 14.544 103.258 13.704 103.306 12.864C103.354 12.12 103.378 11.352 103.378 10.728C103.378 10.152 103.354 9.672 103.258 9.384C102.97 8.4 102.37 7.8 101.722 7.488C101.29 7.272 100.834 7.176 100.426 7.176C100.018 7.176 99.6339 7.272 99.4179 7.44C98.9379 7.776 98.5059 8.424 98.1699 9.192C97.7859 10.08 97.4259 11.256 97.1139 12.408C97.1379 12.288 97.1379 12.024 97.1379 11.688C97.1379 10.968 97.0659 9.888 96.7539 9.024C96.3939 8.016 95.3139 7.224 94.2339 7.224C93.7779 7.224 93.3459 7.368 92.9379 7.68C91.9059 8.52 91.1379 12.336 91.0179 12.96C91.0899 12.168 91.1619 11.376 91.1619 10.584C91.1619 9.792 91.0899 9 90.8979 8.568C90.5379 7.824 89.7939 7.416 89.0499 7.416C88.7859 7.416 88.4979 7.464 88.2579 7.584C88.3779 7.992 88.4259 8.712 88.4259 9.624C88.4259 10.68 88.3779 12 88.3059 13.2C88.2339 14.376 88.1859 15.504 88.1859 16.272C88.1859 16.584 88.1859 16.848 88.2099 17.016C88.3299 18.144 89.6259 18.744 90.4899 18.744C90.7539 18.744 90.9699 18.696 91.1139 18.576C91.0899 18.504 91.0659 18.384 91.0659 18.216C91.0659 17.424 91.4259 15.72 91.9059 14.016C92.5539 11.712 93.4179 9.456 93.9459 9.456C94.3059 9.456 94.4019 10.416 94.4019 11.64C94.4019 12.336 94.3539 13.128 94.3299 13.872C94.2819 15.072 94.1859 16.248 94.1859 16.944C94.1859 17.136 94.1859 17.28 94.2099 17.4C94.3059 18.24 95.2899 18.696 96.1299 18.696C96.4659 18.696 96.8019 18.624 97.0419 18.456C97.0179 18.408 97.0179 18.312 97.0179 18.216C97.0179 17.52 97.4259 15.72 97.9539 13.92C98.6259 11.664 99.5139 9.432 100.018 9.432C100.378 9.432 100.45 10.104 100.45 10.92C100.45 11.88 100.33 13.152 100.33 14.376C100.33 15.216 100.402 16.032 100.57 16.68C100.93 18.096 102.274 19.056 103.45 19.056C103.642 19.056 103.81 19.032 103.978 18.984Z" fill="white"/>
</svg>
